<svg width="128" height="48" viewBox="0 0 128 48" fill="#3f857c" xmlns="http://www.w3.org/2000/svg">
<path d="M35.65 19.1385C35.65 16.6795 35.0084 14.2638 33.7891 12.1342C32.5701 10.0047 30.8165 8.23628 28.7049 7.00677L25.9268 11.8594C27.1937 12.5971 28.2459 13.6582 28.9773 14.9359C29.7088 16.2137 30.0939 17.6631 30.0939 19.1385H35.65Z" fill="#3f857c"/>
<path d="M25.9268 11.8594C23.8152 10.6299 21.4198 9.98274 18.9815 9.98274C16.5432 9.98274 14.1479 10.63 12.0362 11.8595L14.8143 16.7122C16.0813 15.9745 17.5185 15.5861 18.9815 15.5861C20.4445 15.5861 21.8817 15.9745 23.1486 16.7122L25.9268 11.8594Z" fill="#3f857c"/>
<path d="M14.8154 16.7109C12.7037 17.9404 10.9502 19.7088 9.73107 21.8384C8.51192 23.9679 7.87012 26.3836 7.87012 28.8426H13.4263C13.4263 27.3672 13.8114 25.9178 14.5429 24.6401C15.2744 23.3623 16.3265 22.3013 17.5934 21.5636L14.8154 16.7109Z" fill="#3f857c"/>
<path d="M13.4263 28.8426C13.4263 31.3015 14.0681 33.7172 15.2872 35.8469C16.5064 37.9763 18.2599 39.7448 20.3715 40.9741L23.1496 36.1216C21.8826 35.3839 20.8305 34.3228 20.099 33.0452C19.3676 31.7675 18.9824 30.318 18.9824 28.8426H13.4263Z" fill="#3f857c"/>
<path d="M23.1496 36.1216C25.2612 37.3509 27.6562 37.9989 30.0944 37.9989C32.5327 37.9989 34.9281 37.3516 37.0398 36.1222L34.2617 31.2696C32.9945 32.0072 31.5574 32.3957 30.0944 32.3957C28.6315 32.3957 27.1943 32.0072 25.9273 31.2696L23.1496 36.1216Z" fill="#3f857c"/>
<path d="M34.2605 31.2702C36.3722 30.0406 38.1258 28.2722 39.3448 26.1427C40.5638 24.0131 41.2057 21.5974 41.2057 19.1385H35.65C35.65 20.6138 35.2645 22.0633 34.5331 23.341C33.8017 24.6187 32.7495 25.6798 31.4823 26.4175L34.2605 31.2702Z" fill="#3f857c"/>
<path fill-rule="evenodd" clip-rule="evenodd" d="M56.3659 19.6073C53.9841 19.6073 52.0532 21.5546 52.0532 23.9566C52.0532 26.3587 53.9841 28.306 56.3659 28.306H60.8515C63.2333 28.306 65.1642 26.3587 65.1642 23.9566C65.1642 21.5545 63.2333 19.6073 60.8515 19.6073H56.3659ZM47.8625 23.9566C47.8625 19.2205 51.6696 15.381 56.3659 15.381H60.8515C65.5478 15.381 69.3548 19.2205 69.3548 23.9566C69.3548 28.6928 65.5478 32.5322 60.8515 32.5322H56.3659C51.6696 32.5322 47.8625 28.6928 47.8625 23.9566Z" fill="#3f857c"/>
<path fill-rule="evenodd" clip-rule="evenodd" d="M78.8887 19.6073C76.5068 19.6073 74.5759 21.5546 74.5759 23.9566C74.5759 26.3587 76.5068 28.306 78.8887 28.306H79.3911C81.773 28.306 83.7039 26.3587 83.7039 23.9566C83.7039 21.5545 81.773 19.6073 79.3911 19.6073H78.8887ZM70.3853 23.9566C70.3853 19.2205 74.1924 15.381 78.8887 15.381H79.3911C84.0874 15.381 87.8945 19.2205 87.8945 23.9566C87.8945 28.6928 84.0874 32.5322 79.3911 32.5322H78.8887C74.1924 32.5322 70.3853 28.6928 70.3853 23.9566Z" fill="#3f857c"/>
<path fill-rule="evenodd" clip-rule="evenodd" d="M97.7696 19.6073C95.3878 19.6073 93.4569 21.5545 93.4569 23.9566C93.4569 26.3587 95.3878 28.306 97.7696 28.306H98.2721C100.654 28.306 102.585 26.3587 102.585 23.9566C102.585 21.5546 100.654 19.6073 98.2721 19.6073H97.7696ZM89.2663 23.9566C89.2663 19.2205 93.0733 15.381 97.7696 15.381H98.2721C102.968 15.381 106.775 19.2205 106.775 23.9566C106.775 28.6928 102.968 32.5322 98.2721 32.5322H97.7696C93.0733 32.5322 89.2663 28.6928 89.2663 23.9566Z" fill="#3f857c"/>
<path fill-rule="evenodd" clip-rule="evenodd" d="M108.291 23.939C108.291 19.2012 112.099 15.3605 116.797 15.3605H120.324V19.5868H116.797C114.414 19.5868 112.482 21.5353 112.482 23.939C112.482 26.3427 114.414 28.2912 116.797 28.2912H120.324V32.5175H116.797C112.099 32.5175 108.291 28.6768 108.291 23.939Z" fill="#3f857c"/>
<path fill-rule="evenodd" clip-rule="evenodd" d="M56.5144 30.8258V16.869H60.7051V30.8258H56.5144Z" fill="#3f857c"/>
<path fill-rule="evenodd" clip-rule="evenodd" d="M89.2788 35.0313V24.3123H93.4695V35.0313H89.2788Z" fill="#3f857c"/>
<path fill-rule="evenodd" clip-rule="evenodd" d="M56.5144 35.0007V23.3124H60.7051V35.0007H56.5144Z" fill="#3f857c"/>
</svg>